<!-- Generated by IcoMoon.io -->
<svg version="1.1" xmlns="http://www.w3.org/2000/svg" width="32" height="32" viewBox="0 0 32 32">
<path d="M11.316 25.59c0.032-0.448 0.096-0.895 0.192-1.335 0.084-0.393 0.339-1.507 0.712-3.12l0.009-0.040 0.516-2.224c0.105-0.453 0.187-0.805 0.241-0.923-0.259-0.599-0.388-1.245-0.379-1.897 0-1.783 1.008-3.164 2.315-3.164 0.48-0.008 0.939 0.2 1.256 0.568 0.317 0.367 0.464 0.859 0.403 1.328 0 0.604-0.113 1.064-0.604 2.713-0.095 0.317-0.16 0.539-0.221 0.761-0.068 0.251-0.127 0.477-0.176 0.696-0.128 0.515-0.011 1.063 0.316 1.475 0.159 0.201 0.363 0.362 0.596 0.468s0.489 0.154 0.745 0.14c1.989 0 3.467-2.647 3.467-6.064 0-2.627-1.72-4.365-4.576-4.365-0.715-0.027-1.428 0.095-2.093 0.358s-1.269 0.661-1.772 1.169c-0.514 0.519-0.92 1.136-1.194 1.814s-0.409 1.403-0.4 2.134c-0.033 0.788 0.208 1.563 0.683 2.192 0.241 0.187 0.333 0.511 0.233 0.787-0.055 0.224-0.187 0.736-0.235 0.907-0.014 0.084-0.047 0.163-0.097 0.232s-0.115 0.125-0.191 0.164c-0.073 0.038-0.154 0.058-0.236 0.059s-0.164-0.019-0.237-0.056c-1.547-0.639-2.395-2.371-2.395-4.587 0-3.98 3.321-7.445 8.256-7.445 4.18 0 7.308 3.105 7.308 6.853 0 4.709-2.576 8.139-6.253 8.139-0.523 0.015-1.042-0.093-1.516-0.315s-0.889-0.552-1.212-0.964l-0.333 1.372-0.003 0.009c-0.195 0.8-0.331 1.356-0.384 1.565-0.141 0.473-0.32 0.937-0.533 1.387 2.653 0.632 5.448 0.223 7.809-1.142s4.11-3.582 4.887-6.197 0.523-5.427-0.71-7.86c-1.233-2.433-3.351-4.301-5.919-5.22s-5.39-0.82-7.887 0.277c-2.497 1.097-4.479 3.109-5.538 5.622s-1.116 5.337-0.158 7.89c0.958 2.553 2.858 4.643 5.309 5.839v-0.001zM15.996 29.335c-7.364 0-13.333-5.969-13.333-13.333s5.969-13.333 13.333-13.333c7.364 0 13.333 5.969 13.333 13.333s-5.969 13.333-13.333 13.333z"></path>
</svg>
