<!-- Generated by IcoMoon.io -->
<svg version="1.1" xmlns="http://www.w3.org/2000/svg" width="32" height="32" viewBox="0 0 32 32">
<path d="M16 6.667c-0.701 0.007-1.372 0.289-1.867 0.787l-5.733 5.72c-0.248 0.25-0.388 0.588-0.388 0.94s0.139 0.69 0.388 0.94c0.124 0.125 0.271 0.224 0.434 0.292s0.337 0.103 0.513 0.103c0.176 0 0.35-0.035 0.513-0.103s0.31-0.167 0.434-0.292l4.373-4.387v13.333c0 0.354 0.14 0.693 0.391 0.943s0.589 0.391 0.943 0.391c0.354 0 0.693-0.14 0.943-0.391s0.391-0.589 0.391-0.943v-13.333l4.387 4.387c0.249 0.251 0.588 0.393 0.942 0.394s0.694-0.138 0.945-0.387 0.393-0.588 0.394-0.942c0.001-0.354-0.138-0.694-0.387-0.945l-5.733-5.72c-0.498-0.501-1.174-0.784-1.88-0.787v0z"></path>
</svg>
