<!-- Generated by IcoMoon.io -->
<svg version="1.1" xmlns="http://www.w3.org/2000/svg" width="32" height="32" viewBox="0 0 32 32">
<path d="M6.667 16c0.006 0.701 0.289 1.372 0.787 1.867l5.72 5.733c0.25 0.248 0.588 0.388 0.94 0.388s0.69-0.139 0.94-0.388c0.125-0.124 0.224-0.271 0.292-0.434s0.103-0.337 0.103-0.513c0-0.176-0.035-0.35-0.103-0.513s-0.167-0.31-0.292-0.434l-4.387-4.373h13.333c0.354 0 0.693-0.14 0.943-0.391s0.391-0.589 0.391-0.943c0-0.354-0.141-0.693-0.391-0.943s-0.589-0.391-0.943-0.391h-13.333l4.387-4.387c0.251-0.249 0.393-0.588 0.394-0.942s-0.138-0.694-0.387-0.945-0.588-0.393-0.942-0.394c-0.354-0.001-0.694 0.138-0.945 0.387l-5.72 5.733c-0.501 0.498-0.784 1.174-0.787 1.88v0z"></path>
</svg>
