<!-- Generated by IcoMoon.io -->
<svg version="1.1" xmlns="http://www.w3.org/2000/svg" width="32" height="32" viewBox="0 0 32 32">
<path d="M26.042 14.059c-0.481 0-0.949 0.058-1.398 0.166l-2.37-5.687 2.056-0.685c0.491-0.164 0.757-0.695 0.593-1.186s-0.694-0.757-1.186-0.593l-3.077 1.028c-0.478 0.199-0.704 0.748-0.505 1.226l0.589 1.414-8.217 2.136-0.844-1.969h1.304c0.518 0 0.938-0.42 0.938-0.938s-0.42-0.938-0.938-0.938h-4.017c-0.518 0-0.938 0.42-0.938 0.938s0.42 0.938 0.938 0.938h0.673l1.248 2.912-1.817 2.12c-0.907-0.559-1.975-0.882-3.116-0.882-3.285 0-5.958 2.673-5.958 5.958s2.673 5.958 5.958 5.958c2.966 0 5.433-2.179 5.884-5.021h3.153c0.3 0 0.581-0.143 0.758-0.385l6.047-8.293 1.113 2.672c-1.697 1.051-2.831 2.93-2.831 5.069 0 3.285 2.673 5.958 5.958 5.958s5.959-2.673 5.959-5.958c0-3.285-2.673-5.958-5.958-5.958zM5.958 24.1c-2.252 0-4.083-1.832-4.083-4.083s1.832-4.083 4.083-4.083c0.675 0 1.312 0.166 1.873 0.457l-2.585 3.016c-0.238 0.278-0.293 0.669-0.14 1.002s0.486 0.546 0.852 0.546h3.973c-0.425 1.801-2.044 3.146-3.973 3.146zM7.997 19.079l3.718-4.338 1.859 4.338h-5.577zM15.209 18.134l-1.934-4.513 6.447-1.676-4.513 6.189zM26.042 24.1c-2.252 0-4.083-1.832-4.083-4.083 0-1.358 0.667-2.563 1.69-3.306l1.528 3.666c0.199 0.478 0.748 0.704 1.226 0.505s0.704-0.748 0.505-1.226l-1.528-3.668c0.216-0.035 0.437-0.055 0.663-0.055 2.252 0 4.083 1.832 4.083 4.083s-1.832 4.083-4.083 4.083z"></path>
</svg>
