<!-- Generated by IcoMoon.io -->
<svg version="1.1" xmlns="http://www.w3.org/2000/svg" width="32" height="32" viewBox="0 0 32 32">
<path d="M0 28.5c0 1.553 1.259 2.813 2.813 2.813h8.812c0.249 0 0.487-0.099 0.663-0.275l1.212-1.212 1.212 1.212c0.176 0.176 0.414 0.275 0.663 0.275h13.812c1.553 0 2.813-1.259 2.813-2.813v-15c0-1.553-1.259-2.813-2.813-2.813h-13.812c-0.144 0-0.287 0.033-0.416 0.098l0.416 0.84c-0.416-0.84-0.417-0.84-0.417-0.84l-0.001 0-0.001 0.001-0.003 0.001c-0.002 0.001-0.004 0.002-0.005 0.003-0.004 0.002-0.007 0.004-0.011 0.006s-0.009 0.005-0.013 0.007c-0.004 0.002-0.007 0.004-0.011 0.006-0.017 0.009-0.035 0.021-0.055 0.034-0.038 0.025-0.090 0.064-0.144 0.117-0.003 0.003-0.005 0.005-0.008 0.008l-1.206 1.205-1.212-1.212c-0.176-0.176-0.414-0.275-0.663-0.275h-8.812c-1.553 0-2.813 1.259-2.813 2.813v15zM15.763 12.562h13.424c0.518 0 0.938 0.42 0.938 0.938v15c0 0.518-0.42 0.938-0.938 0.938h-13.424l-1.6-1.6c-0.176-0.176-0.414-0.275-0.663-0.275s-0.487 0.099-0.663 0.275l-1.6 1.6h-8.424c-0.518 0-0.938-0.42-0.938-0.938v-15c0-0.518 0.42-0.938 0.938-0.938h8.424l1.6 1.6c0.366 0.366 0.96 0.366 1.326 0l1.601-1.6z"></path>
<path d="M2.26 12.721c0.488-0.174 0.741-0.711 0.567-1.198l-0-0.001c-0.001-0.002-0.001-0.003-0.002-0.005-0.177-0.486 0.074-1.024 0.56-1.201l5.508-2.005 2.051 0.957c0.469 0.219 1.027 0.016 1.246-0.453l0.957-2.051 11.381-4.142c0.486-0.177 1.024 0.074 1.202 0.56l3.234 8.885c0.177 0.486 0.715 0.737 1.202 0.56s0.737-0.715 0.56-1.202l-3.234-8.884c-0.531-1.46-2.145-2.212-3.605-1.681 0 0 0 0 0 0l-11.675 4.249c-0.343 0.089-0.521 0.351-0.599 0.511l-0.002-0.001-0.724 1.553-1.553-0.724c-0.225-0.105-0.483-0.116-0.717-0.031l-5.873 2.138c-1.459 0.531-2.211 2.143-1.682 3.602 0.175 0.486 0.711 0.739 1.198 0.565zM12.789 6.892c-0.094 0.035-0.195 0.056-0.302 0.059 0.101-0.003 0.201-0.022 0.296-0.056l0.007-0.002zM13.399 6.009c0 0 0 0 0 0v0c0-0 0-0 0-0zM13.399 6.013v-0.004c0 0.001 0 0.002 0 0.004zM13.399 6.017c0 0.001 0 0.002-0 0.003 0-0 0-0.001 0-0.001s0-0.001 0-0.002z"></path>
<path d="M13.5 20.062c0.518 0 0.938-0.42 0.938-0.938v-1.875c0-0.518-0.42-0.937-0.938-0.937s-0.938 0.42-0.938 0.937v1.875c0 0.518 0.42 0.938 0.938 0.938z"></path>
<path d="M13.5 25.687c0.518 0 0.938-0.42 0.938-0.938v-1.875c0-0.518-0.42-0.938-0.938-0.938s-0.938 0.42-0.938 0.938v1.875c0 0.518 0.42 0.938 0.938 0.938z"></path>
<path d="M3.813 19.125c0 0.518 0.42 0.938 0.938 0.938h5c0.518 0 0.938-0.42 0.938-0.938s-0.42-0.938-0.938-0.938h-5c-0.518 0-0.938 0.42-0.938 0.938z"></path>
<path d="M3.813 22.875c0 0.518 0.42 0.938 0.938 0.938h5c0.518 0 0.938-0.42 0.938-0.938s-0.42-0.938-0.938-0.938h-5c-0.518 0-0.938 0.42-0.938 0.938z"></path>
<path d="M3.813 26.625c0 0.518 0.42 0.938 0.938 0.938h5c0.518 0 0.938-0.42 0.938-0.938s-0.42-0.938-0.938-0.938h-5c-0.518 0-0.938 0.42-0.938 0.938z"></path>
<path d="M16.313 26.625c0 0.518 0.42 0.938 0.937 0.938h10c0.518 0 0.938-0.42 0.938-0.938s-0.42-0.938-0.938-0.938h-10c-0.518 0-0.937 0.42-0.937 0.938z"></path>
<path d="M3.813 15.375c0 0.518 0.42 0.938 0.938 0.938h5c0.518 0 0.938-0.42 0.938-0.938s-0.42-0.938-0.938-0.938h-5c-0.518 0-0.938 0.42-0.938 0.938z"></path>
<path d="M16.313 22.875c0 0.518 0.42 0.938 0.937 0.938h2.5c0.249 0 0.487-0.099 0.663-0.275l7.5-7.5c0.366-0.366 0.366-0.96 0-1.326s-0.96-0.366-1.326 0l-7.225 7.225h-2.112c-0.518 0-0.937 0.42-0.937 0.938z"></path>
<path d="M24.75 22.562c0.518 0 0.938-0.42 0.938-0.938v-3.75c0-0.518-0.42-0.938-0.938-0.938s-0.937 0.42-0.937 0.938v3.75c0 0.518 0.42 0.938 0.937 0.938z"></path>
<path d="M20.063 17.875c0 0.518 0.42 0.938 0.938 0.938h3.75c0.518 0 0.938-0.42 0.938-0.938s-0.42-0.938-0.938-0.938h-3.75c-0.518 0-0.938 0.42-0.938 0.938z"></path>
</svg>
