<!-- Generated by IcoMoon.io -->
<svg version="1.1" xmlns="http://www.w3.org/2000/svg" width="32" height="32" viewBox="0 0 32 32">
<path d="M10.669 1.333c0.736 0 1.333 0.597 1.333 1.333v1.333h8v-1.333c0-0.736 0.597-1.333 1.333-1.333s1.333 0.597 1.333 1.333v1.335c0.634 0.004 1.188 0.017 1.669 0.057 0.749 0.061 1.438 0.193 2.085 0.522 1.004 0.511 1.819 1.327 2.331 2.331 0.33 0.647 0.461 1.336 0.522 2.086 0.059 0.722 0.059 1.607 0.059 2.681v4.988c0 0.736-0.597 1.333-1.333 1.333s-1.333-0.597-1.333-1.333v-2h-21.333v8.267c0 1.142 0.001 1.919 0.050 2.519 0.048 0.585 0.134 0.884 0.241 1.092 0.256 0.502 0.664 0.91 1.165 1.165 0.209 0.106 0.507 0.193 1.092 0.241 0.6 0.049 1.377 0.050 2.519 0.050h5.6c0.736 0 1.333 0.597 1.333 1.333s-0.597 1.333-1.333 1.333h-5.655c-1.073 0-1.959 0-2.681-0.059-0.749-0.061-1.438-0.193-2.086-0.522-1.004-0.511-1.819-1.327-2.331-2.331-0.33-0.647-0.461-1.336-0.522-2.085-0.059-0.722-0.059-1.608-0.059-2.681v-11.31c-0-1.073-0-1.959 0.059-2.681 0.061-0.749 0.193-1.438 0.522-2.085 0.511-1.004 1.327-1.819 2.331-2.331 0.647-0.33 1.336-0.461 2.086-0.522 0.481-0.039 1.035-0.052 1.669-0.057v-1.335c0-0.736 0.597-1.333 1.333-1.333zM9.335 6.668c-0.594 0.004-1.060 0.016-1.452 0.048-0.585 0.048-0.883 0.134-1.092 0.241-0.502 0.256-0.91 0.664-1.165 1.165-0.106 0.209-0.193 0.507-0.241 1.092-0.049 0.6-0.050 1.377-0.050 2.519v0.267h21.333v-0.267c0-1.142-0.001-1.918-0.050-2.519-0.048-0.585-0.134-0.883-0.241-1.092-0.256-0.502-0.664-0.91-1.165-1.165-0.209-0.106-0.508-0.193-1.092-0.241-0.391-0.032-0.858-0.044-1.452-0.048v1.331c0 0.736-0.597 1.333-1.333 1.333s-1.333-0.597-1.333-1.333v-1.333h-8v1.333c0 0.736-0.597 1.333-1.333 1.333s-1.333-0.597-1.333-1.333v-1.331zM28.945 21.057c0.521 0.521 0.521 1.365 0 1.886l-6 6c-0.521 0.521-1.365 0.521-1.886 0l-2.667-2.667c-0.521-0.521-0.521-1.365 0-1.886s1.365-0.521 1.886 0l1.724 1.724 5.057-5.057c0.521-0.521 1.365-0.521 1.886 0z"></path>
</svg>
