<!-- Generated by IcoMoon.io -->
<svg version="1.1" xmlns="http://www.w3.org/2000/svg" width="32" height="32" viewBox="0 0 32 32">
<path d="M11.821 2.872c2.408-2.052 5.95-2.052 8.358 0v0c0.605 0.515 1.357 0.827 2.149 0.89 3.154 0.252 5.658 2.756 5.91 5.91 0.063 0.792 0.375 1.544 0.89 2.149 2.052 2.408 2.052 5.95 0 8.358-0.515 0.605-0.827 1.357-0.89 2.149-0.252 3.154-2.756 5.658-5.91 5.91-0.792 0.063-1.544 0.375-2.149 0.89-2.408 2.052-5.95 2.052-8.358 0-0.605-0.515-1.357-0.827-2.149-0.89-3.154-0.252-5.658-2.756-5.91-5.91-0.063-0.792-0.375-1.544-0.89-2.149v0c-2.052-2.408-2.052-5.95 0-8.358 0.515-0.605 0.827-1.357 0.89-2.149 0.252-3.154 2.756-5.658 5.91-5.91 0.792-0.063 1.544-0.375 2.149-0.89zM18.449 4.902c-1.411-1.203-3.487-1.203-4.898 0-1.032 0.879-2.315 1.411-3.666 1.519-1.848 0.147-3.316 1.615-3.464 3.464-0.108 1.351-0.639 2.634-1.519 3.666-1.203 1.411-1.203 3.487 0 4.898v0c0.879 1.032 1.411 2.315 1.519 3.666 0.147 1.848 1.615 3.316 3.464 3.464 1.351 0.108 2.634 0.639 3.666 1.519 1.411 1.203 3.487 1.203 4.898 0 1.032-0.879 2.315-1.411 3.666-1.519 1.848-0.148 3.316-1.615 3.464-3.464 0.108-1.352 0.639-2.635 1.519-3.666 1.203-1.411 1.203-3.487 0-4.898-0.879-1.032-1.411-2.315-1.519-3.666-0.148-1.848-1.615-3.316-3.464-3.464-1.352-0.108-2.634-0.639-3.666-1.519zM21.609 11.724c0.521 0.521 0.521 1.365 0 1.886l-6 6c-0.521 0.521-1.365 0.521-1.886 0l-2.667-2.667c-0.521-0.521-0.521-1.365 0-1.886s1.365-0.521 1.886 0l1.724 1.724 5.057-5.057c0.521-0.521 1.365-0.521 1.886 0z"></path>
</svg>
