<!-- Generated by IcoMoon.io -->
<svg version="1.1" xmlns="http://www.w3.org/2000/svg" width="32" height="32" viewBox="0 0 32 32">
<path d="M15.998 4c-6.627 0-12 5.373-12 12s5.373 12 12 12c6.627 0 12-5.372 12-12s-5.373-12-12-12zM1.331 16c0-8.1 6.566-14.667 14.667-14.667s14.667 6.566 14.667 14.667c0 8.1-6.567 14.667-14.667 14.667s-14.667-6.566-14.667-14.667zM19.543 12.455l-5.318 1.773-1.773 5.318 5.318-1.773 1.772-5.318zM20.082 9.489c0.244-0.057 0.699-0.146 1.187 0.028 0.565 0.202 1.010 0.647 1.212 1.212 0.174 0.488 0.085 0.943 0.028 1.187-0.059 0.25-0.157 0.546-0.253 0.832-0.005 0.015-0.010 0.030-0.015 0.044l-1.984 5.95c-0.003 0.011-0.007 0.023-0.012 0.036-0.043 0.133-0.132 0.408-0.298 0.65-0.14 0.205-0.317 0.382-0.522 0.522-0.242 0.166-0.517 0.255-0.65 0.298-0.014 0.004-0.026 0.008-0.036 0.012l-5.994 1.998c-0.287 0.096-0.582 0.194-0.832 0.253-0.243 0.057-0.699 0.146-1.187-0.028-0.565-0.202-1.010-0.647-1.212-1.212-0.174-0.488-0.085-0.943-0.028-1.187 0.059-0.25 0.157-0.546 0.253-0.832 0.005-0.015 0.010-0.030 0.015-0.044l1.983-5.95c0.004-0.010 0.007-0.023 0.012-0.036 0.043-0.133 0.132-0.408 0.298-0.65 0.14-0.205 0.317-0.382 0.522-0.522 0.242-0.166 0.517-0.255 0.65-0.298 0.014-0.004 0.026-0.008 0.036-0.012l5.95-1.983c0.015-0.005 0.029-0.010 0.044-0.015 0.287-0.096 0.582-0.194 0.832-0.253z"></path>
</svg>
