<!-- Generated by IcoMoon.io -->
<svg version="1.1" xmlns="http://www.w3.org/2000/svg" width="34" height="32" viewBox="0 0 34 32">
<path d="M27.467 29.333h-18.667c-2.209 0-4-1.791-4-4v-18.667c0-2.209 1.791-4 4-4h18.667c0.736 0 1.333 0.597 1.333 1.333v24c0 0.736-0.597 1.333-1.333 1.333zM26.133 26.667v-2.667h-17.333c-0.736 0-1.333 0.597-1.333 1.333s0.597 1.333 1.333 1.333h17.333zM7.467 21.561c0.417-0.147 0.866-0.228 1.333-0.228h17.333v-16h-17.333c-0.736 0-1.333 0.597-1.333 1.333v14.894zM16.8 13.333c-1.473 0-2.667-1.194-2.667-2.667s1.194-2.667 2.667-2.667c1.473 0 2.667 1.194 2.667 2.667s-1.194 2.667-2.667 2.667zM12.8 18.667c0-2.209 1.791-4 4-4s4 1.791 4 4h-8z"></path>
</svg>
