<!-- Generated by IcoMoon.io -->
<svg version="1.1" xmlns="http://www.w3.org/2000/svg" width="32" height="32" viewBox="0 0 32 32">
<path d="M6.88 4h18.236c0.703-0 1.309-0 1.809 0.041 0.527 0.043 1.051 0.138 1.556 0.395 0.753 0.383 1.365 0.995 1.748 1.748 0.257 0.505 0.352 1.029 0.395 1.556 0.041 0.499 0.041 1.106 0.041 1.809v1.785c0 0.736-0.597 1.333-1.333 1.333-1.841 0-3.333 1.492-3.333 3.333s1.492 3.333 3.333 3.333c0.736 0 1.333 0.597 1.333 1.333v1.785c0 0.703 0 1.309-0.041 1.809-0.043 0.527-0.138 1.052-0.395 1.556-0.384 0.753-0.996 1.364-1.748 1.748-0.504 0.257-1.029 0.352-1.556 0.395-0.499 0.041-1.106 0.041-1.809 0.041h-18.236c-0.703 0-1.309 0-1.809-0.041-0.527-0.043-1.051-0.138-1.556-0.395-0.753-0.384-1.365-0.995-1.748-1.748-0.257-0.504-0.352-1.029-0.395-1.556-0.041-0.499-0.041-1.106-0.041-1.809v-1.785c0-0.736 0.597-1.333 1.333-1.333 1.841 0 3.333-1.492 3.333-3.333s-1.492-3.333-3.333-3.333c-0.736 0-1.333-0.597-1.333-1.333v-1.785c-0-0.703-0-1.309 0.041-1.809 0.043-0.527 0.138-1.051 0.395-1.556 0.383-0.753 0.995-1.365 1.748-1.748 0.505-0.257 1.029-0.352 1.556-0.395 0.499-0.041 1.106-0.041 1.809-0.041zM5.288 6.699c-0.362 0.030-0.497 0.080-0.562 0.113-0.251 0.128-0.455 0.332-0.583 0.583-0.034 0.066-0.084 0.2-0.113 0.562-0.031 0.378-0.032 0.874-0.032 1.643v0.549c2.672 0.606 4.667 2.996 4.667 5.851s-1.995 5.245-4.667 5.851v0.549c0 0.769 0.001 1.265 0.032 1.643 0.030 0.362 0.080 0.496 0.113 0.562 0.128 0.251 0.332 0.455 0.583 0.583 0.066 0.034 0.2 0.084 0.562 0.113 0.378 0.031 0.874 0.032 1.643 0.032h18.133c0.769 0 1.265-0.001 1.643-0.032 0.362-0.030 0.496-0.080 0.562-0.113 0.251-0.128 0.455-0.332 0.583-0.583 0.034-0.066 0.084-0.2 0.113-0.562 0.031-0.378 0.032-0.874 0.032-1.643v-0.549c-2.672-0.606-4.667-2.996-4.667-5.851s1.995-5.245 4.667-5.851v-0.549c0-0.769-0.001-1.265-0.032-1.643-0.030-0.362-0.080-0.497-0.113-0.562-0.128-0.251-0.332-0.455-0.583-0.583-0.066-0.034-0.2-0.084-0.562-0.113-0.378-0.031-0.874-0.032-1.643-0.032h-18.133c-0.769 0-1.265 0.001-1.643 0.032zM13.331 8c0.736 0 1.333 0.597 1.333 1.333v1.333c0 0.736-0.597 1.333-1.333 1.333s-1.333-0.597-1.333-1.333v-1.333c0-0.736 0.597-1.333 1.333-1.333zM13.331 14c0.736 0 1.333 0.597 1.333 1.333v1.333c0 0.736-0.597 1.333-1.333 1.333s-1.333-0.597-1.333-1.333v-1.333c0-0.736 0.597-1.333 1.333-1.333zM13.331 20c0.736 0 1.333 0.597 1.333 1.333v1.333c0 0.736-0.597 1.333-1.333 1.333s-1.333-0.597-1.333-1.333v-1.333c0-0.736 0.597-1.333 1.333-1.333z"></path>
</svg>
