<!-- Generated by IcoMoon.io -->
<svg version="1.1" xmlns="http://www.w3.org/2000/svg" width="32" height="32" viewBox="0 0 32 32">
<path d="M6.881 5.333h18.236c0.703-0 1.309-0 1.809 0.041 0.527 0.043 1.051 0.138 1.556 0.395 0.753 0.383 1.365 0.995 1.748 1.748 0.257 0.505 0.352 1.029 0.395 1.556 0.041 0.499 0.041 1.106 0.041 1.809v5.118c0 0.736-0.597 1.333-1.333 1.333s-1.333-0.597-1.333-1.333v-1.333h-24v6.4c0 0.769 0.001 1.265 0.032 1.643 0.030 0.362 0.080 0.496 0.113 0.562 0.128 0.251 0.332 0.455 0.583 0.583 0.066 0.034 0.2 0.084 0.562 0.113 0.378 0.031 0.874 0.032 1.643 0.032h9.067c0.736 0 1.333 0.597 1.333 1.333s-0.597 1.333-1.333 1.333h-9.118c-0.703 0-1.309 0-1.809-0.041-0.527-0.043-1.051-0.138-1.556-0.395-0.753-0.384-1.365-0.995-1.748-1.748-0.257-0.504-0.352-1.029-0.395-1.556-0.041-0.499-0.041-1.106-0.041-1.809v-10.236c-0-0.703-0-1.309 0.041-1.809 0.043-0.527 0.138-1.051 0.395-1.556 0.384-0.753 0.995-1.365 1.748-1.748 0.505-0.257 1.029-0.352 1.556-0.395 0.499-0.041 1.106-0.041 1.809-0.041zM3.999 12h24v-1.067c0-0.769-0.001-1.265-0.032-1.643-0.030-0.362-0.080-0.496-0.113-0.562-0.128-0.251-0.332-0.455-0.583-0.583-0.066-0.034-0.2-0.084-0.563-0.113-0.378-0.031-0.874-0.032-1.643-0.032h-18.133c-0.769 0-1.265 0.001-1.643 0.032-0.362 0.030-0.497 0.080-0.562 0.113-0.251 0.128-0.455 0.332-0.583 0.583-0.034 0.066-0.084 0.2-0.113 0.562-0.031 0.378-0.032 0.874-0.032 1.643v1.067zM30.276 20.391c0.521 0.521 0.521 1.365 0 1.886l-5.333 5.333c-0.521 0.521-1.365 0.521-1.886 0l-2.667-2.667c-0.521-0.521-0.521-1.365 0-1.886s1.365-0.521 1.886 0l1.724 1.724 4.391-4.391c0.521-0.521 1.365-0.521 1.886 0z"></path>
</svg>
