<!-- Generated by IcoMoon.io -->
<svg version="1.1" xmlns="http://www.w3.org/2000/svg" width="32" height="32" viewBox="0 0 32 32">
<path d="M9.398 18.828l-2.828 2.828 3.771 3.771 15.085-15.085-3.771-3.771-2.828 2.828 1.886 1.886-1.886 1.886-1.886-1.886-1.886 1.886 1.886 1.886-1.886 1.886-1.886-1.886-1.886 1.886 1.886 1.886-1.886 1.886-1.886-1.886zM22.597 3.744l5.657 5.657c0.521 0.521 0.521 1.365 0 1.886l-16.971 16.971c-0.521 0.521-1.365 0.521-1.886 0l-5.657-5.657c-0.521-0.521-0.521-1.365 0-1.886l16.971-16.971c0.521-0.521 1.365-0.521 1.886 0zM18.826 24.485l1.886-1.886 2.99 2.99h1.886v-1.886l-2.99-2.99 1.886-1.886 3.514 3.514v5.658h-5.656l-3.515-3.515zM7.512 13.171l-3.771-3.771c-0.521-0.521-0.521-1.365 0-1.886l3.771-3.771c0.521-0.521 1.365-0.521 1.886 0l3.771 3.771-1.886 1.886-2.828-2.828-1.886 1.886 2.828 2.828-1.886 1.886z"></path>
</svg>
