<!-- Generated by IcoMoon.io -->
<svg version="1.1" xmlns="http://www.w3.org/2000/svg" width="32" height="32" viewBox="0 0 32 32">
<path d="M31.939 7.389l-11.224 11.224c-1.251 1.248-2.947 1.949-4.715 1.949s-3.463-0.701-4.715-1.949l-11.224-11.224c-0.019 0.211-0.061 0.401-0.061 0.611v16c0.002 1.767 0.705 3.462 1.955 4.712s2.944 1.953 4.712 1.955h18.667c1.767-0.002 3.462-0.705 4.712-1.955s1.953-2.944 1.955-4.712v-16c0-0.209-0.043-0.4-0.061-0.611z"></path>
<path d="M18.829 16.728l12.179-12.18c-0.59-0.978-1.422-1.788-2.416-2.351s-2.116-0.861-3.259-0.864h-18.667c-1.142 0.003-2.265 0.301-3.259 0.864s-1.826 1.373-2.416 2.351l12.179 12.18c0.751 0.748 1.769 1.169 2.829 1.169s2.078-0.42 2.829-1.169z"></path>
</svg>
