<!-- Generated by IcoMoon.io -->
<svg version="1.1" xmlns="http://www.w3.org/2000/svg" width="32" height="32" viewBox="0 0 32 32">
<path d="M25.335 29.333h-18.667c-2.209 0-4-1.791-4-4v-21.333c0-0.736 0.597-1.333 1.333-1.333h18.667c0.736 0 1.333 0.597 1.333 1.333v16h5.333v5.333c0 2.209-1.791 4-4 4zM24.002 22.667v2.667c0 0.736 0.597 1.333 1.333 1.333s1.333-0.597 1.333-1.333v-2.667h-2.667zM21.335 26.667v-21.333h-16v20c0 0.736 0.597 1.333 1.333 1.333h14.667zM8.002 9.333h10.667v2.667h-10.667v-2.667zM8.002 14.667h10.667v2.667h-10.667v-2.667zM8.002 20h6.667v2.667h-6.667v-2.667z"></path>
</svg>
