<!-- Generated by IcoMoon.io -->
<svg version="1.1" xmlns="http://www.w3.org/2000/svg" width="32" height="32" viewBox="0 0 32 32">
<path d="M7.424 2.667c0.014 0 0.028 0 0.043 0h7.776c0.336-0 0.664-0 0.942 0.023 0.305 0.025 0.664 0.084 1.026 0.268 0.502 0.256 0.91 0.664 1.165 1.165 0.184 0.362 0.243 0.722 0.268 1.026 0.005 0.059 0.009 0.121 0.012 0.184l7.254-0c0.336-0 0.664-0 0.942 0.023 0.305 0.025 0.664 0.084 1.026 0.268 0.502 0.256 0.91 0.664 1.165 1.165 0.184 0.362 0.243 0.722 0.268 1.026 0.023 0.278 0.023 0.605 0.023 0.942v9.152c0 0.336 0 0.664-0.023 0.942-0.025 0.305-0.084 0.664-0.268 1.026-0.256 0.502-0.664 0.91-1.165 1.165-0.362 0.184-0.721 0.243-1.026 0.268-0.278 0.023-0.605 0.023-0.942 0.023h-6.485c-0.336 0-0.664 0-0.942-0.023-0.305-0.025-0.664-0.084-1.026-0.268-0.502-0.256-0.91-0.664-1.165-1.165-0.184-0.362-0.243-0.722-0.268-1.026-0.005-0.063-0.009-0.128-0.012-0.196-0.236 0.012-0.499 0.012-0.768 0.011h-8.576v9.333c0 0.736-0.597 1.333-1.333 1.333s-1.333-0.597-1.333-1.333v-10.666c0-0 0 0 0 0v-11.201c0-0.014 0-0.028 0-0.043 0-0.028 0-0.057 0-0.085v-0.673c0-0.102 0.012-0.202 0.033-0.297 0.030-0.279 0.095-0.595 0.257-0.913 0.256-0.502 0.664-0.91 1.165-1.165 0.362-0.184 0.722-0.243 1.026-0.268 0.278-0.023 0.605-0.023 0.942-0.023zM6.667 16h8.533c0.395 0 0.612-0.001 0.767-0.014 0.006-0.001 0.012-0.001 0.018-0.002 0.001-0.006 0.001-0.011 0.002-0.018 0.013-0.155 0.014-0.372 0.014-0.767v-9.067c0-0.395-0.001-0.612-0.014-0.767-0.001-0.006-0.001-0.012-0.002-0.018-0.006-0-0.011-0.001-0.018-0.002-0.155-0.013-0.372-0.014-0.767-0.014h-7.733c-0.395 0-0.612 0.001-0.767 0.014-0.006 0-0.012 0.001-0.018 0.002-0 0.006-0.001 0.011-0.002 0.018-0.013 0.155-0.014 0.37-0.014 0.763 0 0.001 0 0.003 0 0.004v9.867zM18.667 15.325v2.542c0 0.395 0.001 0.612 0.014 0.767 0 0.006 0.001 0.012 0.001 0.018 0.006 0 0.011 0.001 0.018 0.001 0.156 0.013 0.372 0.014 0.767 0.014h6.4c0.395 0 0.612-0.001 0.767-0.014 0.006-0 0.012-0.001 0.018-0.001 0-0.006 0.001-0.011 0.002-0.018 0.013-0.156 0.014-0.372 0.014-0.767v-9.067c0-0.395-0.001-0.612-0.014-0.767-0-0.006-0.001-0.012-0.002-0.018-0.005-0.001-0.011-0.001-0.018-0.002-0.155-0.013-0.372-0.014-0.767-0.014h-7.2v7.242c0 0.028 0 0.055 0 0.083z"></path>
</svg>
