<!-- Generated by IcoMoon.io -->
<svg version="1.1" xmlns="http://www.w3.org/2000/svg" width="32" height="32" viewBox="0 0 32 32">
<path d="M14.795 1.384c-3.001 0.261-5.699 1.382-7.894 3.112l0.031-0.024c-0.571 0.442-1.95 1.813-2.416 2.405-1.88 2.35-3.056 5.336-3.166 8.592l-0.001 0.024c-0.006 0.16-0.010 0.347-0.010 0.535 0 3.45 1.195 6.621 3.194 9.121l-0.023-0.029c0.544 0.69 1.939 2.050 2.635 2.568 2.083 1.557 4.29 2.467 6.906 2.854 0.891 0.131 2.99 0.131 3.894 0 2.595-0.381 4.84-1.307 6.902-2.85 0.81-0.606 2.237-2.034 2.843-2.843 3.205-4.282 3.862-9.766 1.762-14.68l-0.291-0.683 0.072-0.357c0.043-0.216 0.070-0.693 0.069-1.21-0.003-0.742-0.021-0.928-0.146-1.427-0.238-1.002-0.675-1.879-1.268-2.625l0.010 0.014c-1.235-1.552-3.124-2.539-5.244-2.539-0.786 0-1.541 0.136-2.242 0.385l0.047-0.014-0.469 0.16-0.571-0.134c-1.363-0.318-3.344-0.47-4.627-0.355zM16.949 4.046l0.336 0.034-0.163 0.222c-0.242 0.326-0.621 1.117-0.795 1.654-0.245 0.757-0.299 1.141-0.298 2.070 0.003 0.738 0.022 0.93 0.144 1.416 0.504 2.022 1.629 3.616 4.69 6.643 0.968 0.957 1.115 1.082 1.37 1.166 0.128 0.045 0.276 0.070 0.429 0.070 0.221 0 0.429-0.053 0.613-0.147l-0.008 0.004c0.411-0.198 2.854-2.723 4.179-4.317l0.112-0.136 0.11 0.478c0.229 0.994 0.301 1.654 0.301 2.795 0 0.776-0.027 1.272-0.094 1.707-0.611 3.992-3.035 7.312-6.622 9.070-1.529 0.764-3.33 1.215-5.236 1.222h-0.657v-1.538l1.646-1.922c0.938-1.094 1.696-2.029 1.762-2.17 0.124-0.25 0.197-0.544 0.197-0.855 0-0.508-0.194-0.971-0.512-1.319l0.001 0.002c-0.218-0.238-0.558-0.454-2.197-1.392l-1.938-1.109-1.254-2.195c-1.323-2.32-1.472-2.53-1.973-2.782-0.528-0.267-0.61-0.267-3.786 0.019-1.6 0.146-2.915 0.256-2.923 0.248-0.053-0.050 0.534-1.613 0.842-2.24 1.896-3.866 5.547-6.342 9.894-6.71 0.368-0.032 1.478-0.026 1.829 0.010zM23.675 4.13c0.448 0.122 1.118 0.467 1.488 0.765 0.901 0.723 1.504 1.96 1.504 3.080 0 0.349-0.117 0.962-0.264 1.382-0.35 1.003-1.259 2.232-2.84 3.843l-0.89 0.907-0.621-0.614c-1.784-1.763-2.79-3.133-3.187-4.333-0.142-0.434-0.163-0.571-0.168-1.133-0.005-0.757 0.058-1.050 0.366-1.707 0.557-1.173 1.629-2.023 2.916-2.263l0.025-0.004c0.355-0.064 1.317-0.021 1.67 0.077zM21.931 6.189c-0.527 0.243-0.889 0.76-0.906 1.363l-0 0.002c-0.034 0.501 0.080 0.838 0.398 1.195 0.134 0.149 0.366 0.334 0.517 0.413 0.234 0.123 0.338 0.144 0.726 0.144 0.387 0 0.491-0.021 0.725-0.144 0.15-0.078 0.382-0.264 0.517-0.413 0.32-0.357 0.432-0.694 0.4-1.195-0.017-0.605-0.38-1.122-0.898-1.361l-0.010-0.004c-0.278-0.139-0.386-0.162-0.734-0.162-0.35 0-0.458 0.022-0.736 0.162zM10.982 17.253c0.928 1.63 1.211 2.085 1.446 2.32 0.232 0.234 0.618 0.478 1.878 1.194 0.872 0.496 1.586 0.917 1.586 0.938s-0.648 0.792-1.44 1.714c-0.81 0.942-1.498 1.794-1.574 1.946-0.174 0.349-0.238 0.757-0.238 1.53 0 0.346-0.010 0.627-0.021 0.627-0.133 0-1.288-0.458-1.872-0.742-3.994-1.941-6.651-6.043-6.71-10.358l-0.010-0.709 2.72-0.25c0.596-0.069 1.597-0.155 2.603-0.225l0.298-0.017c0.181 0.008 0.182 0.011 1.334 2.034z"></path>
</svg>
