<!-- Generated by IcoMoon.io -->
<svg version="1.1" xmlns="http://www.w3.org/2000/svg" width="32" height="32" viewBox="0 0 32 32">
<path d="M16 5.333c-5.891 0-10.667 4.776-10.667 10.667h4c1.473 0 2.667 1.194 2.667 2.667v6.667c0 1.473-1.194 2.667-2.667 2.667h-4c-1.473 0-2.667-1.194-2.667-2.667v-9.333c0-7.364 5.97-13.333 13.333-13.333s13.333 5.97 13.333 13.333v9.333c0 1.473-1.194 2.667-2.667 2.667h-4c-1.473 0-2.667-1.194-2.667-2.667v-6.667c0-1.473 1.194-2.667 2.667-2.667h4c0-5.891-4.776-10.667-10.667-10.667zM5.334 18.667v6.667h4v-6.667h-4zM22.667 18.667v6.667h4v-6.667h-4z"></path>
</svg>
