<!-- Generated by IcoMoon.io -->
<svg version="1.1" xmlns="http://www.w3.org/2000/svg" width="32" height="32" viewBox="0 0 32 32">
<path d="M15.99 4.956c3.116-2.728 7.681-3.246 11.304-0.235 3.965 3.295 4.441 8.915 1.388 12.844-1.163 1.497-3.434 3.746-5.616 5.806-2.208 2.084-4.41 4.053-5.496 5.015l-0.021 0.018c-0.102 0.091-0.229 0.203-0.351 0.295-0.146 0.11-0.355 0.246-0.635 0.33-0.372 0.111-0.772 0.111-1.144 0-0.28-0.083-0.489-0.22-0.635-0.33-0.122-0.092-0.249-0.204-0.351-0.295l-0.021-0.018c-1.086-0.962-3.289-2.931-5.496-5.015-2.182-2.060-4.453-4.309-5.616-5.806-3.065-3.944-2.502-9.521 1.374-12.832 3.583-3.061 8.197-2.504 11.317 0.223zM14.978 7.715c-2.273-2.658-5.887-3.248-8.572-0.954-2.804 2.396-3.182 6.362-1.001 9.169 1.017 1.309 3.137 3.423 5.341 5.503 2.057 1.942 4.115 3.788 5.245 4.79 1.129-1.002 3.187-2.848 5.245-4.79 2.204-2.080 4.324-4.194 5.341-5.503 2.193-2.822 1.843-6.805-0.987-9.157-2.756-2.291-6.322-1.704-8.586 0.942-0.253 0.296-0.624 0.467-1.013 0.467s-0.76-0.171-1.013-0.467z"></path>
</svg>
