<!-- Generated by IcoMoon.io -->
<svg version="1.1" xmlns="http://www.w3.org/2000/svg" width="32" height="32" viewBox="0 0 32 32">
<path d="M28.106 12.084c0-6.663-5.421-12.084-12.085-12.084s-12.084 5.421-12.084 12.084c0 2.765 1.939 6.686 5.764 11.656 1.145 1.488 2.282 2.839 3.232 3.923v3.384c0 0.526 0.426 0.952 0.952 0.952h4.272c0.526 0 0.952-0.427 0.952-0.952v-3.384c0.95-1.084 2.087-2.435 3.232-3.923 3.825-4.97 5.764-8.891 5.764-11.656zM26.201 12.084c0 2.646-2.463 6.655-5.159 10.212h-1.196c1.444-4.34 2.176-7.772 2.176-10.212 0-3.106-0.555-6.041-1.563-8.265-0.192-0.423-0.398-0.813-0.615-1.169 3.725 1.514 6.358 5.172 6.358 9.434zM17.205 30.095h-2.367v-1.84h2.367v1.84zM17.734 26.35h-3.417c-0.556-0.636-1.176-1.362-1.819-2.149h1.022c0.003 0 0.005 0 0.008 0s6.016-0 6.016-0c-0.622 0.765-1.235 1.489-1.811 2.149zM16.022 1.905c0.939 0 1.924 0.985 2.702 2.701 0.899 1.982 1.394 4.637 1.394 7.478 0 2.312-0.788 5.835-2.282 10.212h-3.628c-1.494-4.377-2.282-7.899-2.282-10.212 0-2.841 0.495-5.496 1.394-7.478 0.779-1.717 1.763-2.701 2.702-2.701zM5.842 12.084c0-4.262 2.633-7.92 6.358-9.434-0.217 0.356-0.423 0.746-0.615 1.169-1.008 2.223-1.563 5.159-1.563 8.265 0 2.441 0.732 5.873 2.176 10.212h-1.202c-3.372-4.431-5.153-7.958-5.153-10.212z"></path>
</svg>
