<!-- Generated by IcoMoon.io -->
<svg version="1.1" xmlns="http://www.w3.org/2000/svg" width="32" height="32" viewBox="0 0 32 32">
<path d="M10.345 2.667c-1.073-0-1.959-0-2.681 0.059-0.749 0.061-1.438 0.193-2.085 0.522-1.004 0.511-1.819 1.327-2.331 2.331-0.33 0.647-0.461 1.336-0.522 2.086-0.059 0.722-0.059 1.607-0.059 2.681v11.31c-0 1.073-0 1.959 0.059 2.681 0.061 0.75 0.193 1.438 0.522 2.086 0.511 1.004 1.327 1.819 2.331 2.331 0.647 0.33 1.336 0.461 2.085 0.522 0.157 0.013 0.322 0.023 0.494 0.031 0.012 0.001 0.023 0.002 0.033 0.003 0.285 0.025 0.64 0.025 1 0.025h1.057c0.032 0 0.064 0 0.096 0h11.31c1.073 0 1.959 0 2.681-0.059 0.749-0.061 1.438-0.193 2.085-0.522 1.004-0.511 1.82-1.327 2.331-2.331 0.33-0.647 0.461-1.336 0.522-2.086 0.059-0.722 0.059-1.607 0.059-2.681v-11.31c0-1.073 0-1.959-0.059-2.681-0.061-0.749-0.193-1.438-0.522-2.086-0.511-1.004-1.327-1.819-2.331-2.331-0.647-0.33-1.336-0.461-2.085-0.522-0.722-0.059-1.607-0.059-2.681-0.059h-11.31zM10.4 26.667c-0.18 0-0.351 0-0.514-0l10.882-10.882c0.28-0.28 0.433-0.432 0.552-0.533 0.005-0.004 0.009-0.008 0.014-0.011 0.004 0.004 0.009 0.007 0.013 0.011 0.119 0.101 0.273 0.253 0.552 0.533l4.768 4.768v1.048c0 1.142-0.001 1.918-0.050 2.519-0.048 0.585-0.134 0.884-0.241 1.092-0.256 0.502-0.664 0.91-1.165 1.165-0.208 0.106-0.508 0.193-1.092 0.241-0.6 0.049-1.376 0.050-2.519 0.050h-11.2zM26.666 16.781l-2.912-2.912c-0.238-0.238-0.47-0.47-0.682-0.65-0.233-0.198-0.529-0.411-0.915-0.536-0.536-0.174-1.112-0.174-1.648 0-0.386 0.126-0.682 0.338-0.915 0.536-0.212 0.18-0.444 0.412-0.682 0.65l-11.402 11.402c-0.255 0.255-0.506 0.505-0.689 0.725-0.057 0.068-0.133 0.162-0.211 0.279-0.419-0.256-0.761-0.624-0.985-1.065-0.106-0.208-0.193-0.507-0.241-1.092-0.049-0.6-0.050-1.376-0.050-2.519v-11.2c0-1.142 0.001-1.918 0.050-2.519 0.048-0.585 0.134-0.883 0.241-1.092 0.256-0.502 0.664-0.91 1.165-1.165 0.209-0.106 0.507-0.193 1.092-0.241 0.6-0.049 1.377-0.050 2.519-0.050h11.2c1.142 0 1.919 0.001 2.519 0.050 0.584 0.048 0.884 0.134 1.092 0.241 0.502 0.256 0.91 0.664 1.165 1.165 0.106 0.209 0.193 0.507 0.241 1.092 0.049 0.6 0.050 1.377 0.050 2.519v6.381zM11.333 10c-0.736 0-1.333 0.597-1.333 1.333s0.597 1.333 1.333 1.333c0.736 0 1.333-0.597 1.333-1.333s-0.597-1.333-1.333-1.333zM7.333 11.333c0-2.209 1.791-4 4-4s4 1.791 4 4c0 2.209-1.791 4-4 4s-4-1.791-4-4z"></path>
</svg>
