<!-- Generated by IcoMoon.io -->
<svg version="1.1" xmlns="http://www.w3.org/2000/svg" width="32" height="32" viewBox="0 0 32 32">
<path d="M12.035 10.712l-3.514-3.513v-2.258c0-0.248-0.099-0.486-0.274-0.661l-3.969-3.969c-0.365-0.365-0.958-0.365-1.323 0l-2.646 2.646c-0.365 0.365-0.365 0.958 0 1.323l3.969 3.969c0.175 0.175 0.413 0.274 0.661 0.274h2.258l3.513 3.514c-4.696 4.804-12.943 16.606-10.147 19.401 2.709 2.709 14.262-5.125 19.402-10.147l3.513 3.514v2.258c0 0.248 0.099 0.486 0.274 0.661l3.969 3.969c0.365 0.365 0.958 0.365 1.323 0l2.646-2.646c0.365-0.365 0.365-0.958 0-1.323l-3.969-3.969c-0.175-0.175-0.413-0.274-0.661-0.274h-2.258l-3.513-3.513c4.779-4.89 12.924-16.624 10.147-19.402-2.715-2.715-14.269 5.132-19.402 10.147zM2.294 3.617l1.323-1.323 3.033 3.033v1.323h-1.323l-3.033-3.033zM1.913 30.090c-0.079-0.446 0.153-1.848 1.208-4.163 0.907 1.076 1.876 2.045 2.953 2.953-2.316 1.058-3.716 1.29-4.16 1.21zM7.91 27.963c-1.444-1.13-2.743-2.428-3.873-3.873 2.057-3.822 4.943-7.6 7.998-10.731l6.608 6.608c-3.425 3.343-7.268 6.129-10.733 7.997zM29.707 28.384l-1.323 1.323-3.033-3.033v-1.323h1.323l3.033 3.033zM19.967 18.644l-6.608-6.608c3.425-3.343 7.268-6.129 10.733-7.997 1.445 1.13 2.743 2.428 3.873 3.873-2.055 3.819-4.942 7.599-7.998 10.731zM28.881 6.074c-0.907-1.076-1.876-2.045-2.953-2.953 2.317-1.058 3.716-1.29 4.16-1.21 0.080 0.446-0.153 1.848-1.208 4.163z"></path>
<path d="M18.869 9.164c-1.303 1.303-1.901 3.39-0.661 4.63 1.212 1.212 3.284 0.685 4.63-0.661 1.303-1.303 1.901-3.39 0.662-4.63-1.113-1.113-3.147-0.822-4.63 0.661zM21.515 11.81c-0.707 0.707-1.67 0.976-1.984 0.661-0.361-0.361 0.047-1.37 0.661-1.984 0.763-0.763 1.693-0.953 1.984-0.661 0.361 0.361-0.047 1.37-0.662 1.984z"></path>
<path d="M9.164 18.869c-1.303 1.303-1.901 3.39-0.661 4.63 1.201 1.201 3.274 0.695 4.63-0.661 1.484-1.484 1.774-3.517 0.661-4.63s-3.146-0.822-4.63 0.661zM11.81 21.515c-0.72 0.721-1.676 0.97-1.984 0.661-0.361-0.361 0.047-1.37 0.661-1.984 0.807-0.808 1.715-0.931 1.984-0.662s0.146 1.177-0.661 1.984z"></path>
</svg>
