<!-- Generated by IcoMoon.io -->
<svg version="1.1" xmlns="http://www.w3.org/2000/svg" width="32" height="32" viewBox="0 0 32 32">
<path d="M28.206 3.792l-23.681 9.241 9.303 3.618c0.010 0.004 0.022 0.008 0.035 0.013 0.129 0.049 0.395 0.15 0.632 0.319 0.2 0.143 0.376 0.318 0.519 0.519 0.169 0.237 0.27 0.503 0.319 0.632 0.005 0.013 0.009 0.025 0.013 0.035l3.618 9.303 9.241-23.681zM28.811 0.405c0.271-0.079 0.817-0.22 1.404-0.025 0.662 0.221 1.182 0.741 1.404 1.404 0.196 0.586 0.054 1.132-0.025 1.404-0.086 0.296-0.224 0.648-0.362 1.002l-9.804 25.122c-0.154 0.395-0.304 0.778-0.45 1.074-0.126 0.255-0.407 0.798-0.99 1.101-0.643 0.334-1.409 0.334-2.051-0.001-0.583-0.304-0.863-0.847-0.989-1.102-0.146-0.296-0.295-0.679-0.448-1.074l-3.867-9.943-9.89-3.846c-0.017-0.007-0.035-0.014-0.052-0.020-0.396-0.154-0.779-0.303-1.074-0.448-0.256-0.126-0.799-0.406-1.102-0.989-0.335-0.643-0.335-1.408-0.001-2.051 0.303-0.583 0.846-0.864 1.101-0.99 0.296-0.146 0.678-0.295 1.074-0.45 0.017-0.007 0.035-0.014 0.052-0.020l25.069-9.783c0.354-0.138 0.706-0.276 1.002-0.362z"></path>
</svg>
