<!-- Generated by IcoMoon.io -->
<svg version="1.1" xmlns="http://www.w3.org/2000/svg" width="32" height="32" viewBox="0 0 32 32">
<path d="M21.622 7.625h-1.869v-5.438c0-1.206-0.981-2.188-2.188-2.188h-3.125c-1.206 0-2.187 0.981-2.187 2.188v5.438h-1.875c-1.551 0-2.813 1.262-2.813 2.813v16.875c0 1.55 1.26 2.811 2.809 2.812v0.938c0 0.518 0.42 0.938 0.938 0.938s0.937-0.42 0.937-0.938v-0.938h7.5v0.938c0 0.518 0.42 0.938 0.938 0.938s0.938-0.42 0.938-0.938v-0.938c1.549-0.002 2.809-1.263 2.809-2.812v-16.875c0-1.551-1.262-2.813-2.813-2.813zM22.56 10.438v0.938h-0.938c-0.517 0-0.938-0.421-0.938-0.938v-0.938h0.938c0.517 0 0.938 0.421 0.938 0.938zM14.128 2.188c0-0.172 0.14-0.313 0.313-0.313h3.125c0.172 0 0.313 0.14 0.313 0.313v5.438h-3.75v-5.438zM10.379 9.5h0.947v0.938c0 0.517-0.421 0.938-0.938 0.938h-0.947v-0.938c0-0.517 0.421-0.938 0.938-0.938zM21.622 28.25h-11.244c-0.517 0-0.938-0.421-0.938-0.937v-14.063h0.947c1.551 0 2.813-1.262 2.813-2.812v-0.938h5.609v0.938c0 1.551 1.262 2.812 2.813 2.812h0.938v14.063c-0 0.517-0.421 0.937-0.938 0.937z"></path>
<path d="M12.247 15.125c-0.518 0-0.938 0.42-0.938 0.938v7.5c0 0.518 0.42 0.938 0.938 0.938s0.938-0.42 0.938-0.938v-7.5c0-0.518-0.42-0.938-0.938-0.938z"></path>
<path d="M16 13.25c-0.518 0-0.938 0.42-0.938 0.938v9.375c0 0.518 0.42 0.938 0.938 0.938s0.938-0.42 0.938-0.938v-9.375c0-0.518-0.42-0.938-0.938-0.938z"></path>
<path d="M19.753 15.125c-0.518 0-0.938 0.42-0.938 0.938v7.5c0 0.518 0.42 0.938 0.938 0.938s0.937-0.42 0.937-0.938v-7.5c0-0.518-0.42-0.938-0.937-0.938z"></path>
</svg>
