<!-- Generated by IcoMoon.io -->
<svg version="1.1" xmlns="http://www.w3.org/2000/svg" width="32" height="32" viewBox="0 0 32 32">
<path d="M9.012 4h13.977c1.073-0 1.959-0 2.681 0.059 0.749 0.061 1.438 0.193 2.085 0.522 1.004 0.511 1.82 1.327 2.331 2.331 0.318 0.624 0.452 1.288 0.516 2.007 0.071 0.218 0.084 0.448 0.041 0.667 0.024 0.6 0.024 1.294 0.024 2.092v8.644c0 1.073 0 1.959-0.059 2.681-0.061 0.749-0.193 1.438-0.522 2.086-0.511 1.004-1.327 1.819-2.331 2.331-0.647 0.33-1.336 0.461-2.085 0.522-0.722 0.059-1.607 0.059-2.681 0.059h-13.977c-1.073 0-1.959 0-2.681-0.059-0.749-0.061-1.438-0.193-2.085-0.522-1.004-0.511-1.819-1.327-2.331-2.331-0.33-0.647-0.461-1.336-0.522-2.086-0.059-0.722-0.059-1.607-0.059-2.681v-8.643c0-0.798-0-1.492 0.024-2.092-0.042-0.219-0.030-0.449 0.041-0.667 0.064-0.719 0.198-1.383 0.516-2.007 0.511-1.004 1.327-1.819 2.331-2.331 0.647-0.33 1.336-0.461 2.085-0.522 0.722-0.059 1.607-0.059 2.681-0.059zM4 11.894v8.373c0 0.511 0 0.949 0.005 1.33l6.050-5.464-6.055-4.238zM12.931 14.891c0.015 0.010 0.031 0.021 0.046 0.032l1.341 0.939c0.972 0.68 1.178 0.798 1.36 0.844 0.212 0.053 0.433 0.053 0.645 0 0.182-0.045 0.388-0.163 1.36-0.844l1.341-0.939c0.015-0.011 0.030-0.022 0.046-0.032l8.821-6.175c-0.048-0.276-0.11-0.455-0.18-0.594-0.256-0.502-0.664-0.91-1.165-1.165-0.209-0.106-0.508-0.193-1.092-0.241-0.6-0.049-1.377-0.050-2.519-0.050h-13.867c-1.142 0-1.918 0.001-2.519 0.050-0.585 0.048-0.883 0.134-1.092 0.241-0.502 0.256-0.91 0.664-1.165 1.165-0.071 0.139-0.133 0.317-0.18 0.594l8.821 6.175zM12.296 17.701l-7.548 6.817c0.204 0.211 0.443 0.389 0.708 0.524 0.209 0.106 0.507 0.193 1.092 0.24 0.6 0.049 1.377 0.050 2.519 0.050h13.867c1.142 0 1.919-0.001 2.519-0.050 0.584-0.048 0.883-0.134 1.092-0.24 0.265-0.135 0.504-0.312 0.708-0.524l-7.548-6.817-0.493 0.345c-0.052 0.036-0.103 0.072-0.154 0.108-0.726 0.51-1.364 0.958-2.090 1.139-0.635 0.158-1.3 0.158-1.935 0-0.726-0.181-1.364-0.629-2.090-1.139-0.051-0.036-0.102-0.072-0.154-0.108l-0.493-0.345zM21.945 16.132l6.050 5.464c0.005-0.381 0.005-0.819 0.005-1.33v-8.373l-6.055 4.238z"></path>
</svg>
