<!-- Generated by IcoMoon.io -->
<svg version="1.1" xmlns="http://www.w3.org/2000/svg" width="32" height="32" viewBox="0 0 32 32">
<path d="M16 31.637l-8.485-8.485c-4.686-4.686-4.686-12.284 0-16.971s12.284-4.686 16.971 0c4.686 4.686 4.686 12.284 0 16.971l-8.485 8.485zM22.6 21.266c3.645-3.645 3.645-9.554 0-13.199s-9.554-3.645-13.199 0-3.645 9.554 0 13.199l6.6 6.6 6.6-6.6zM16 17.333c-1.473 0-2.667-1.194-2.667-2.667s1.194-2.667 2.667-2.667 2.667 1.194 2.667 2.667c0 1.473-1.194 2.667-2.667 2.667z"></path>
</svg>
