<!-- Generated by IcoMoon.io -->
<svg version="1.1" xmlns="http://www.w3.org/2000/svg" width="32" height="32" viewBox="0 0 32 32">
<path d="M28.25 2.813c0-0.518 0.42-0.938 0.938-0.938s0.938 0.42 0.938 0.938-0.42 0.938-0.938 0.938c-0.518 0-0.938-0.42-0.938-0.938z"></path>
<path d="M30.125 10.375c0-0.518 0.42-0.938 0.938-0.938s0.938 0.42 0.938 0.938c0 0.518-0.42 0.938-0.938 0.938s-0.938-0.42-0.938-0.938z"></path>
<path d="M16.063 30.125c-7.772 0-14.188-6.364-14.188-14.125 0-6.768 4.878-12.473 11.28-13.822-2.282 2.37-3.717 5.602-3.717 9.135 0 7.255 5.945 13.125 13.187 13.125 1.96 0 3.819-0.432 5.488-1.204-2.459 4.112-6.936 6.891-12.051 6.891zM0 16c0 8.807 7.266 16 16.063 16 7.024 0 12.962-4.61 15.089-10.897 0.134-0.395-0.010-0.831-0.352-1.069s-0.8-0.223-1.125 0.039c-1.931 1.556-4.379 2.49-7.050 2.49-6.219 0-11.312-5.043-11.312-11.25 0-4.005 2.163-7.581 5.331-9.578 0.353-0.222 0.516-0.651 0.401-1.051-0.113-0.393-0.466-0.667-0.873-0.679-0.007-0.001-0.021-0.002-0.037-0.002-0.018-0.001-0.043-0.002-0.073-0.002-8.797 0-16.063 7.193-16.063 16z"></path>
<path d="M17 6.563c0 0.518 0.42 0.938 0.938 0.938 2.589 0 4.687-2.099 4.687-4.688 0-0.518-0.42-0.938-0.938-0.938s-0.938 0.42-0.938 0.938c0 1.553-1.259 2.813-2.812 2.813-0.518 0-0.938 0.42-0.938 0.938z"></path>
<path d="M25.438 5.625c-1.553 0-2.813-1.259-2.813-2.813 0-0.518-0.42-0.938-0.938-0.938s-0.938 0.42-0.938 0.938c0 2.589 2.099 4.688 4.688 4.688 0.518 0 0.938-0.42 0.938-0.938s-0.42-0.938-0.938-0.938z"></path>
<path d="M21.687 11.313c0.518 0 0.938-0.42 0.938-0.938 0-2.569-2.079-4.75-4.687-4.75-0.518 0-0.938 0.42-0.938 0.938s0.42 0.938 0.938 0.938c1.533 0 2.812 1.301 2.812 2.875 0 0.518 0.42 0.938 0.938 0.938z"></path>
<path d="M21.687 11.313c0.518 0 0.938-0.42 0.938-0.938 0-1.574 1.279-2.875 2.813-2.875 0.518 0 0.938-0.42 0.938-0.938s-0.42-0.938-0.938-0.938c-2.609 0-4.688 2.181-4.688 4.75 0 0.518 0.42 0.938 0.938 0.938z"></path>
</svg>
