<!-- Generated by IcoMoon.io -->
<svg version="1.1" xmlns="http://www.w3.org/2000/svg" width="32" height="32" viewBox="0 0 32 32">
<path d="M0.14 31.555c0.171 0.276 0.473 0.445 0.797 0.445h24.1c0.325 0 0.627-0.168 0.797-0.445s0.186-0.622 0.041-0.912l-0.839 0.419c0.839-0.419 0.838-0.419 0.838-0.419l-0-0-1.129-2.259c-0.699-1.398-1.665-3.331-2.737-5.475-2.143-4.287-4.706-9.414-6.386-12.773l-0.001-0.001c-0.5-0.996-1.516-1.627-2.635-1.627s-2.136 0.631-2.635 1.627l-0.001 0.001c-1.68 3.359-4.243 8.486-6.386 12.773-1.072 2.144-2.038 4.077-2.737 5.475l-1.13 2.259c-0 0-0 0 0.838 0.419l-0.839-0.419c-0.145 0.291-0.13 0.636 0.041 0.912zM2.454 30.125l0.451-0.903c0.699-1.398 1.665-3.331 2.737-5.475 2.143-4.287 4.706-9.413 6.386-12.772 0.183-0.364 0.552-0.592 0.959-0.592s0.776 0.228 0.959 0.593c1.679 3.359 4.242 8.485 6.385 12.772 1.072 2.144 2.038 4.077 2.737 5.475l0.451 0.903h-21.066z"></path>
<path d="M24.199 31.482c0.159 0.318 0.483 0.518 0.838 0.518l6.025-0c0.325 0 0.627-0.168 0.798-0.445s0.186-0.622 0.041-0.912l-0.838 0.419c0.838-0.419 0.838-0.42 0.838-0.42l-0-0-0.187-0.373c-0.121-0.241-0.296-0.592-0.514-1.028-0.436-0.872-1.044-2.088-1.73-3.459-1.372-2.744-3.056-6.113-4.306-8.617l-0.001-0.002c-0.5-0.996-1.516-1.627-2.635-1.627s-2.136 0.631-2.635 1.627l-0.001 0.003c-0.321 0.645-0.625 1.252-0.848 1.699-0.112 0.223-0.203 0.406-0.267 0.533-0.032 0.064-0.057 0.113-0.073 0.147l-0.026 0.051c0 0 0 0 0.838 0.42l-0.838-0.42c-0.132 0.264-0.133 0.575-0 0.839l5.523 11.046zM20.563 20.017c0.046-0.092 0.099-0.197 0.157-0.313 0.223-0.447 0.527-1.055 0.848-1.7 0.183-0.364 0.552-0.592 0.959-0.592s0.776 0.228 0.959 0.592c1.25 2.504 2.935 5.873 4.306 8.617 0.686 1.372 1.294 2.587 1.73 3.46 0.008 0.015 0.015 0.030 0.023 0.045h-3.928l-5.054-10.108z"></path>
<path d="M10.727 18.944c0.033-0.034 0.065-0.066 0.090-0.091l0.003-0.003c0.030-0.030 0.051-0.051 0.069-0.070 0.005-0.005 0.010-0.010 0.014-0.015 1.149-1.151 3.019-1.151 4.168 0 0.005 0.005 0.009 0.009 0.014 0.014 0.018 0.019 0.039 0.040 0.069 0.070l0.003 0.003c0.025 0.025 0.057 0.057 0.090 0.091 0.418 0.412 1.094 0.41 1.509-0.006l0.001-0.001c0.321-0.32 0.634-0.634 0.867-0.868 0.117-0.117 0.213-0.214 0.28-0.282 0.034-0.034 0.060-0.060 0.078-0.078l0.027-0.028c0 0 0 0 0.665 0.661s0.665 0.661 0.665 0.661l-0.028 0.028c-0.018 0.018-0.045 0.045-0.078 0.079-0.068 0.068-0.164 0.165-0.281 0.282-0.234 0.235-0.548 0.549-0.87 0.871-1.149 1.15-3.019 1.15-4.168-0-0.005-0.005-0.010-0.010-0.014-0.015-0.018-0.019-0.039-0.039-0.069-0.070l-0.003-0.003c-0.025-0.025-0.057-0.057-0.090-0.091-0.416-0.41-1.088-0.41-1.504-0-0.033 0.034-0.065 0.067-0.090 0.091l-0.002 0.003c-0.030 0.030-0.051 0.051-0.069 0.070-0.005 0.005-0.009 0.010-0.014 0.014-1.149 1.151-3.018 1.151-4.168 0.001-0.322-0.321-0.636-0.636-0.87-0.871-0.117-0.117-0.214-0.215-0.281-0.282-0.034-0.034-0.060-0.061-0.078-0.079l-0.028-0.028c0 0 0 0 0.665-0.661s0.665-0.661 0.665-0.661l0.027 0.027c0.018 0.018 0.044 0.045 0.078 0.078 0.067 0.068 0.164 0.165 0.28 0.282 0.233 0.234 0.546 0.548 0.867 0.868l0.001 0.001c0.415 0.416 1.092 0.418 1.51 0.005zM18.676 18.343l-0.665-0.661c0.365-0.367 0.959-0.369 1.326-0.004s0.369 0.959 0.004 1.326l-0.665-0.661zM6.638 17.678c-0.367 0.365-0.369 0.959-0.004 1.326l1.33-1.322c-0.365-0.367-0.959-0.369-1.326-0.004z"></path>
<path d="M19.999 9.908c0.001 0 0.002 0 0.003 0h8.55c1.903 0 3.448-1.544 3.448-3.448 0-1.837-1.439-3.34-3.25-3.442-0.596-1.756-2.261-3.018-4.215-3.018-2.309 0-4.212 1.763-4.431 4.017h-0.088c-1.628 0-2.946 1.32-2.946 2.946 0 1.62 1.31 2.935 2.925 2.946 0.001 0 0.002 0 0.004 0zM20.005 8.033c-0.583-0.005-1.059-0.483-1.059-1.071 0-0.591 0.479-1.071 1.071-1.071h1.039c0.273 0 0.533-0.119 0.711-0.327s0.257-0.482 0.216-0.752c-0.016-0.108-0.024-0.227-0.024-0.361 0-1.422 1.157-2.577 2.577-2.577 1.31 0 2.396 0.982 2.554 2.247 0.033 0.261 0.173 0.496 0.387 0.648s0.483 0.208 0.74 0.152c0.107-0.023 0.221-0.035 0.336-0.035 0.868 0 1.573 0.705 1.573 1.573s-0.705 1.573-1.573 1.573h-8.547z"></path>
</svg>
