<!-- Generated by IcoMoon.io -->
<svg version="1.1" xmlns="http://www.w3.org/2000/svg" width="32" height="32" viewBox="0 0 32 32">
<path d="M3.5 22c0.518 0 0.938-0.42 0.938-0.938 0-3.618 2.945-6.563 6.563-6.563s6.563 2.945 6.563 6.563c0 0.518 0.42 0.938 0.938 0.938s0.938-0.42 0.938-0.938c0-4.653-3.784-8.438-8.438-8.438s-8.438 3.784-8.438 8.438c0 0.518 0.42 0.938 0.938 0.938z"></path>
<path d="M28.5 22c0.518 0 0.938-0.42 0.938-0.937 0-4.653-3.784-8.438-8.438-8.438-2.165 0-4.135 0.827-5.626 2.166-0.385 0.346-0.417 0.939-0.071 1.324s0.939 0.417 1.324 0.071c1.166-1.047 2.696-1.686 4.374-1.686 3.618 0 6.563 2.945 6.563 6.563 0 0.518 0.42 0.937 0.938 0.937z"></path>
<path d="M24.75 22c0.518 0 0.938-0.42 0.938-0.938 0-2.589-2.099-4.687-4.688-4.687-1.457 0-2.76 0.666-3.618 1.707-0.329 0.4-0.272 0.99 0.127 1.32s0.99 0.272 1.32-0.127c0.517-0.628 1.297-1.025 2.171-1.025 1.553 0 2.813 1.259 2.813 2.813 0 0.518 0.42 0.938 0.938 0.938z"></path>
<path d="M7.25 22c0.518 0 0.938-0.42 0.938-0.938 0-1.553 1.259-2.812 2.813-2.812s2.813 1.259 2.813 2.812c0 0.518 0.42 0.938 0.938 0.938s0.937-0.42 0.937-0.938c0-2.589-2.099-4.687-4.687-4.687s-4.688 2.099-4.688 4.687c0 0.518 0.42 0.938 0.938 0.938z"></path>
<path d="M15.75 8.437c0 0.518 0.42 0.938 0.937 0.938h14.375c0.518 0 0.938-0.42 0.938-0.938s-0.42-0.938-0.938-0.938h-14.375c-0.518 0-0.937 0.42-0.937 0.938z"></path>
<path d="M6.375 8.437c0 0.518 0.42 0.938 0.938 0.938h1.875c0.518 0 0.938-0.42 0.938-0.938s-0.42-0.938-0.938-0.938h-1.875c-0.518 0-0.938 0.42-0.938 0.938z"></path>
<path d="M6.75 5.224c0.090 0.51 0.576 0.85 1.086 0.76l23.389-4.124c0.51-0.090 0.85-0.576 0.761-1.086s-0.576-0.85-1.086-0.76l-23.389 4.124c-0.51 0.090-0.85 0.576-0.76 1.086z"></path>
<path d="M12.938 14.754c0.518 0 0.938-0.42 0.938-0.937v-11.004c0-0.518-0.42-0.938-0.938-0.938s-0.938 0.42-0.938 0.938v11.004c0 0.518 0.42 0.937 0.938 0.937z"></path>
<path d="M9.187 14.722c0.518 0 0.938-0.42 0.938-0.938v-10.347c0-0.518-0.42-0.938-0.938-0.938s-0.937 0.42-0.937 0.938v10.347c0 0.518 0.42 0.938 0.937 0.938z"></path>
<path d="M16.687 15.877c0.518 0 0.938-0.42 0.938-0.938v-12.752c0-0.518-0.42-0.938-0.938-0.938s-0.937 0.42-0.937 0.938v12.752c0 0.518 0.42 0.938 0.937 0.938z"></path>
<path d="M0 21.062c0 3.97 3.218 7.188 7.188 7.188h17.625c3.97 0 7.187-3.218 7.187-7.188 0-0.518-0.42-0.938-0.938-0.938h-30.125c-0.518 0-0.938 0.42-0.938 0.938zM1.957 22h28.085c-0.443 2.487-2.616 4.375-5.23 4.375h-17.625c-2.614 0-4.787-1.888-5.23-4.375z"></path>
<path d="M6.25 31.062c0 0.518 0.42 0.938 0.938 0.938h17.625c0.518 0 0.937-0.42 0.937-0.938v-3.75c0-0.518-0.42-0.938-0.937-0.938h-17.625c-0.518 0-0.938 0.42-0.938 0.938v3.75zM8.125 30.125v-1.875h15.75v1.875h-15.75z"></path>
</svg>
