<!-- Generated by IcoMoon.io -->
<svg version="1.1" xmlns="http://www.w3.org/2000/svg" width="32" height="32" viewBox="0 0 32 32">
<path d="M30.667 14.666c-0.354 0-0.693-0.141-0.943-0.391s-0.391-0.589-0.391-0.943c-0.003-2.828-1.128-5.54-3.127-7.539s-4.711-3.124-7.539-3.127c-0.354 0-0.693-0.14-0.943-0.391s-0.391-0.589-0.391-0.943 0.14-0.693 0.391-0.943c0.25-0.25 0.589-0.391 0.943-0.391 3.535 0.004 6.924 1.41 9.424 3.91s3.906 5.889 3.91 9.424c0 0.354-0.141 0.693-0.391 0.943s-0.589 0.391-0.943 0.391zM26.667 13.333c0-2.122-0.843-4.157-2.343-5.657s-3.535-2.343-5.657-2.343c-0.354 0-0.693 0.14-0.943 0.391s-0.391 0.589-0.391 0.943 0.14 0.693 0.391 0.943c0.25 0.25 0.589 0.391 0.943 0.391 1.415 0 2.771 0.562 3.771 1.562s1.562 2.357 1.562 3.771c0 0.354 0.14 0.693 0.391 0.943s0.589 0.391 0.943 0.391 0.693-0.141 0.943-0.391c0.25-0.25 0.391-0.589 0.391-0.943zM29.577 29.552l1.213-1.399c0.772-0.775 1.206-1.824 1.206-2.918s-0.434-2.143-1.206-2.918c-0.041-0.041-3.249-2.509-3.249-2.509-0.77-0.733-1.793-1.141-2.856-1.139s-2.085 0.412-2.852 1.147l-2.541 2.141c-2.074-0.859-3.959-2.118-5.545-3.707s-2.843-3.475-3.698-5.551l2.133-2.533c0.736-0.768 1.147-1.79 1.149-2.853s-0.406-2.086-1.139-2.857c0 0-2.471-3.204-2.512-3.245-0.761-0.766-1.792-1.201-2.871-1.213s-2.12 0.402-2.897 1.151l-1.533 1.333c-9.059 10.509 10.448 29.865 21.304 29.517 1.096 0.006 2.183-0.207 3.195-0.627s1.93-1.039 2.7-1.821z"></path>
</svg>
