<!-- Generated by IcoMoon.io -->
<svg version="1.1" xmlns="http://www.w3.org/2000/svg" width="32" height="32" viewBox="0 0 32 32">
<path d="M19.7 4c0-0.736 0.588-1.333 1.313-1.333h6.567c0.725 0 1.313 0.597 1.313 1.333v6.667c0 0.736-0.588 1.333-1.313 1.333s-1.313-0.597-1.313-1.333v-3.448l-5.638 5.724c-0.513 0.521-1.344 0.521-1.857 0s-0.513-1.365 0-1.886l5.638-5.724h-3.396c-0.725 0-1.313-0.597-1.313-1.333zM7.755 6.216c-0.373-0.191-0.813-0.191-1.186 0-0.14 0.072-0.315 0.226-1.086 1.008l-0.207 0.21c-0.736 0.747-0.934 0.963-1.093 1.25-0.184 0.332-0.338 0.933-0.337 1.314 0.001 0.339 0.050 0.543 0.267 1.319 1.071 3.831 3.092 7.447 6.066 10.466s6.535 5.071 10.309 6.158c0.765 0.22 0.966 0.27 1.3 0.271 0.375 0.001 0.967-0.155 1.294-0.342 0.282-0.161 0.495-0.362 1.231-1.109l0.207-0.21c0.771-0.783 0.922-0.96 0.993-1.102 0.188-0.378 0.188-0.825 0-1.204-0.071-0.142-0.222-0.32-0.993-1.102l-0.256-0.26c-0.507-0.514-0.62-0.62-0.707-0.677-0.435-0.287-0.996-0.287-1.432 0-0.086 0.057-0.2 0.162-0.707 0.677-0.010 0.010-0.020 0.021-0.031 0.031-0.118 0.12-0.267 0.272-0.446 0.402v0c-0.64 0.465-1.509 0.616-2.264 0.392-0.211-0.062-0.384-0.147-0.519-0.213-0.011-0.005-0.021-0.010-0.031-0.015-2.036-0.992-3.942-2.344-5.626-4.054s-3.016-3.646-3.994-5.712c-0.005-0.010-0.010-0.021-0.015-0.032-0.065-0.137-0.149-0.313-0.21-0.527v0c-0.22-0.767-0.072-1.649 0.386-2.299v0c0.128-0.182 0.278-0.333 0.396-0.453 0.011-0.011 0.021-0.021 0.031-0.031 0.507-0.514 0.61-0.63 0.666-0.718v0c0.283-0.442 0.283-1.012 0-1.454-0.056-0.088-0.16-0.203-0.666-0.718l-0.256-0.26c-0.771-0.783-0.946-0.936-1.086-1.008zM5.384 3.837c1.118-0.574 2.439-0.574 3.557 0 0.568 0.292 1.061 0.794 1.632 1.374 0.041 0.042 0.083 0.085 0.126 0.128l0.256 0.26c0.028 0.028 0.056 0.056 0.083 0.084 0.376 0.382 0.701 0.71 0.928 1.066v0c0.849 1.326 0.849 3.035 0 4.361-0.228 0.355-0.552 0.684-0.928 1.066-0.027 0.028-0.055 0.056-0.083 0.084-0.076 0.077-0.114 0.116-0.141 0.145-0.001 0.002-0.001 0.005-0.001 0.007s-0.001 0.006-0.001 0.008c0.004 0.010 0.010 0.023 0.018 0.040 0.013 0.027 0.027 0.059 0.048 0.101 0.851 1.799 2.011 3.487 3.483 4.981s3.134 2.672 4.906 3.536h0c0.042 0.020 0.073 0.036 0.1 0.048 0.017 0.008 0.030 0.014 0.040 0.019 0.002-0 0.005-0.001 0.008-0.001s0.005-0.001 0.007-0.001c0.028-0.027 0.067-0.066 0.143-0.143 0.028-0.028 0.056-0.056 0.083-0.084 0.376-0.382 0.7-0.712 1.049-0.943 1.306-0.862 2.989-0.862 4.295 0 0.35 0.231 0.674 0.56 1.050 0.943 0.027 0.028 0.055 0.056 0.083 0.084l0.256 0.26c0.042 0.043 0.084 0.085 0.126 0.128 0.572 0.579 1.067 1.080 1.354 1.657 0.565 1.135 0.565 2.476 0 3.611-0.287 0.577-0.782 1.077-1.354 1.657-0.042 0.042-0.084 0.084-0.126 0.128l-0.207 0.21c-0.030 0.030-0.060 0.060-0.089 0.090-0.611 0.621-1.080 1.097-1.713 1.458-0.722 0.412-1.76 0.686-2.589 0.684-0.725-0.002-1.253-0.155-1.935-0.351-0.024-0.007-0.049-0.014-0.074-0.021-4.194-1.208-8.151-3.489-11.449-6.838s-5.545-7.366-6.735-11.624c-0.007-0.025-0.014-0.050-0.021-0.075-0.194-0.692-0.344-1.229-0.346-1.964-0.002-0.841 0.267-1.895 0.673-2.628v0c0.356-0.643 0.825-1.118 1.436-1.739 0.029-0.030 0.059-0.060 0.089-0.090l0.207-0.21c0.042-0.043 0.084-0.086 0.126-0.128 0.571-0.581 1.064-1.083 1.632-1.375v0z"></path>
</svg>
