<!-- Generated by IcoMoon.io -->
<svg version="1.1" xmlns="http://www.w3.org/2000/svg" width="28" height="32" viewBox="0 0 28 32">
<path d="M21.971 3.5c-1.133 0-2.029 0.907-2.029 2s0.897 2 2.029 2c1.133 0 2.029-0.907 2.029-2s-0.897-2-2.029-2zM16.941 5.5c0-2.773 2.264-5 5.029-5s5.029 2.227 5.029 5c0 2.773-2.264 5-5.029 5-1.286 0-2.463-0.481-3.355-1.275l-8.691 4.925c0.087 0.369 0.133 0.754 0.133 1.15 0 0.749-0.165 1.457-0.46 2.093l9.028 5.372c0.89-0.788 2.063-1.265 3.344-1.265 2.766 0 5.029 2.227 5.029 5s-2.264 5-5.029 5c-2.766 0-5.029-2.227-5.029-5 0-0.402 0.047-0.792 0.137-1.165l-9.561-5.689c-0.735 0.417-1.585 0.654-2.488 0.654-2.766 0-5.029-2.227-5.029-5s2.264-5 5.029-5c1.286 0 2.463 0.481 3.355 1.275l8.691-4.925c-0.087-0.369-0.133-0.754-0.133-1.15zM5.029 13.3c-1.133 0-2.029 0.907-2.029 2s0.897 2 2.029 2c1.133 0 2.029-0.907 2.029-2s-0.897-2-2.029-2zM21.971 24.5c-1.133 0-2.029 0.907-2.029 2s0.897 2 2.029 2c1.133 0 2.029-0.907 2.029-2s-0.897-2-2.029-2z"></path>
</svg>
