<!-- Generated by IcoMoon.io -->
<svg version="1.1" xmlns="http://www.w3.org/2000/svg" width="32" height="32" viewBox="0 0 32 32">
<path d="M16 0c-2.003 0-4.009 0.373-5.835 1.080-1.035-0.682-2.273-1.080-3.602-1.080-3.619 0-6.563 2.944-6.563 6.563 0 1.275 0.366 2.512 1.059 3.576l0.019 0.029c-0.715 1.838-1.078 3.776-1.078 5.77 0 8.742 7.125 16.063 16 16.063 8.786 0 16-7.23 16-16.063 0-8.788-7.178-15.938-16-15.938zM6.563 1.875c2.585 0 4.687 2.103 4.687 4.688 0 0.911-0.261 1.794-0.756 2.553l-3.932 6.041c-0.229-0.352-3.788-5.82-3.932-6.041-0.494-0.759-0.756-1.642-0.756-2.553 0-2.585 2.103-4.688 4.688-4.688zM1.875 15.938c0-1.286 0.171-2.546 0.509-3.763l3.393 5.212c0.173 0.266 0.468 0.426 0.786 0.426s0.613-0.16 0.786-0.426l4.608-7.079 0.651 0.325c0.32 0.16 0.518 0.481 0.518 0.839v2.591c0 0.517-0.42 0.938-0.938 0.938-0.313 0-0.606 0.157-0.78 0.418l-2.388 3.582c-1.029 1.543-0.311 3.641 1.451 4.228l0.828 0.276c0.608 0.203 0.838 0.939 0.454 1.452-0.003 0.004-2.502 3.441-2.502 3.441-4.39-2.409-7.375-7.091-7.375-12.459zM10.984 29.2l2.272-3.125c1.143-1.532 0.461-3.741-1.365-4.349l-0.828-0.276c-0.587-0.196-0.827-0.895-0.484-1.409l2.144-3.216c1.295-0.251 2.277-1.394 2.277-2.761v-2.591c0-1.072-0.596-2.036-1.555-2.516l-0.653-0.326c0.219-0.662 0.333-1.358 0.333-2.067 0-1.524-0.522-2.928-1.397-4.044 0.988-0.306 2.022-0.506 3.070-0.593l4.045 3.236c0.105 0.084 0.193 0.192 0.253 0.313l1.173 2.345c0.48 0.959 1.443 1.555 2.515 1.555h0.716c0.517 0 0.938 0.421 0.938 0.938s-0.421 0.937-0.938 0.937c-1.551 0-2.813 1.262-2.813 2.813v1.098c0 0.751 0.293 1.457 0.824 1.989l1.875 1.875c0.366 0.366 0.366 0.96 0 1.326l-5.024 5.024c-0.98 0.98-1.097 2.618-0.266 3.732l0.556 0.766c-0.859 0.165-1.745 0.252-2.652 0.252-1.766 0-3.456-0.328-5.016-0.925zM20.592 29.355c0 0-0.988-1.362-0.991-1.366-0.279-0.372-0.239-0.962 0.087-1.288l5.024-5.024c1.097-1.097 1.097-2.881 0-3.977l-1.875-1.875c-0.177-0.177-0.275-0.413-0.275-0.663v-1.098c0-0.517 0.421-0.938 0.938-0.938 1.551 0 2.813-1.262 2.813-2.812s-1.262-2.813-2.813-2.813h-0.716c-0.357 0-0.679-0.199-0.839-0.518l-1.173-2.345c-0.181-0.361-0.443-0.686-0.759-0.938l-2.121-1.697c6.896 0.924 12.231 6.821 12.231 13.936 0 6.209-3.992 11.499-9.533 13.417z"></path>
<path d="M6.563 9.375c1.551 0 2.813-1.262 2.813-2.813s-1.262-2.813-2.813-2.813c-1.551 0-2.813 1.262-2.813 2.813s1.262 2.813 2.813 2.813zM6.563 5.625c0.517 0 0.938 0.421 0.938 0.938s-0.421 0.938-0.938 0.938c-0.517 0-0.938-0.421-0.938-0.938s0.421-0.938 0.938-0.938z"></path>
</svg>
