<!-- Generated by IcoMoon.io -->
<svg version="1.1" xmlns="http://www.w3.org/2000/svg" width="32" height="32" viewBox="0 0 32 32">
<path d="M14.758 1.386c-2.997 0.291-5.602 1.336-7.957 3.19-0.614 0.485-1.994 1.909-2.494 2.574-1.541 2.058-2.467 4.301-2.85 6.902-0.147 1.002-0.133 3.059 0.029 4.080 0.407 2.656 1.467 5.010 3.009 6.966l-0.024-0.031c0.52 0.675 1.963 2.093 2.675 2.622 2.629 1.96 5.651 2.976 8.853 2.976s6.224-1.016 8.853-2.976c0.712-0.53 2.155-1.947 2.675-2.622 1.519-1.924 2.578-4.279 2.975-6.852l0.011-0.083c0.162-1.021 0.176-3.078 0.029-4.080-0.382-2.602-1.309-4.845-2.85-6.902-0.501-0.666-1.88-2.090-2.494-2.574-2.13-1.677-4.469-2.693-7.091-3.082-0.846-0.126-2.59-0.182-3.349-0.109zM17.76 4.134c2.646 0.409 4.954 1.626 6.719 3.387l-0-0c2.845 2.845 4.051 6.846 3.274 10.851-0.339 1.744-1.222 3.67-2.296 5.003l-0.293 0.363-0.488-0.472c-1.016-1.001-2.352-1.682-3.84-1.875l-0.034-0.004c-0.61-0.075-8.994-0.075-9.603 0-1.522 0.197-2.857 0.877-3.874 1.879l0.001-0.001-0.488 0.472-0.293-0.363c-0.965-1.197-1.806-2.928-2.189-4.501-0.248-1.011-0.325-1.693-0.325-2.875 0-1.99 0.342-3.494 1.195-5.253 1.192-2.419 3.103-4.331 5.452-5.492l0.070-0.031c1.374-0.672 2.621-1.011 4.373-1.192 0.429-0.045 2.096 0.021 2.64 0.102zM14.822 6.109c-1.364 0.261-2.548 0.897-3.477 1.797l0.002-0.002c-1.239 1.21-2.008 2.897-2.008 4.763 0 1.876 0.776 3.571 2.025 4.78l0.002 0.002c1.199 1.161 2.835 1.876 4.638 1.876 0.732 0 1.437-0.118 2.096-0.336l-0.047 0.014c0.626-0.198 1.17-0.468 1.662-0.81l-0.020 0.013c1.219-0.82 2.138-2.003 2.609-3.393l0.014-0.047c1.29-3.854-1.166-7.96-5.181-8.661-0.565-0.098-1.762-0.096-2.314 0.003zM17.117 8.826c1.324 0.412 2.341 1.445 2.724 2.749l0.007 0.029c0.17 0.595 0.171 1.528 0.003 2.12-0.478 1.709-2.021 2.942-3.853 2.942-1.571 0-2.93-0.907-3.582-2.225l-0.010-0.023c-0.512-1.021-0.512-2.478 0-3.499 0.19-0.379 0.55-0.872 0.829-1.138 0.513-0.471 1.144-0.821 1.843-1.001l0.030-0.007c0.445-0.102 1.608-0.070 2.008 0.054zM21.019 24.122c0.438 0.133 0.774 0.29 1.178 0.549 0.394 0.253 1.019 0.861 0.97 0.942-0.078 0.125-1.232 0.83-1.898 1.16-1.538 0.771-3.351 1.222-5.269 1.222s-3.731-0.451-5.338-1.253l0.069 0.031c-0.666-0.33-1.819-1.035-1.898-1.16-0.050-0.082 0.576-0.688 0.97-0.944 0.429-0.275 0.891-0.475 1.29-0.555l0.4-0.082c0.059-0.011 2.158-0.018 4.667-0.011 4.12 0.010 4.589 0.019 4.859 0.101z"></path>
</svg>
