<!-- Generated by IcoMoon.io -->
<svg version="1.1" xmlns="http://www.w3.org/2000/svg" width="32" height="32" viewBox="0 0 32 32">
<path d="M13.331 5.334c-2.577 0-4.667 2.089-4.667 4.667s2.089 4.667 4.667 4.667c2.577 0 4.667-2.089 4.667-4.667s-2.089-4.667-4.667-4.667zM5.998 10.001c0-4.050 3.283-7.333 7.333-7.333s7.333 3.283 7.333 7.333c0 4.050-3.283 7.333-7.333 7.333s-7.333-3.283-7.333-7.333zM9.766 19.334c0.076 0 0.153 0 0.232 0h6c0.736 0 1.333 0.597 1.333 1.333s-0.597 1.333-1.333 1.333h-6c-1.958 0-2.641 0.015-3.161 0.172-1.278 0.388-2.279 1.388-2.667 2.667-0.158 0.52-0.172 1.203-0.172 3.161 0 0.736-0.597 1.333-1.333 1.333s-1.333-0.597-1.333-1.333c0-0.078-0-0.156-0-0.232-0.001-1.636-0.001-2.754 0.287-3.704 0.646-2.131 2.314-3.798 4.444-4.444 0.95-0.288 2.067-0.288 3.704-0.287zM30.274 20.391c0.521 0.521 0.521 1.365 0 1.886l-5.333 5.333c-0.521 0.521-1.365 0.521-1.886 0l-2.667-2.667c-0.521-0.521-0.521-1.365 0-1.886s1.365-0.521 1.886 0l1.724 1.724 4.39-4.391c0.521-0.521 1.365-0.521 1.886 0z"></path>
</svg>
