<!-- Generated by IcoMoon.io -->
<svg version="1.1" xmlns="http://www.w3.org/2000/svg" width="32" height="32" viewBox="0 0 32 32">
<path d="M12.665 5.333c-2.209 0-4 1.791-4 4s1.791 4 4 4c2.209 0 4-1.791 4-4s-1.791-4-4-4zM5.998 9.333c0-3.682 2.985-6.667 6.667-6.667s6.667 2.985 6.667 6.667-2.985 6.667-6.667 6.667c-3.682 0-6.667-2.985-6.667-6.667zM19.429 3.887c0.276-0.683 1.054-1.012 1.736-0.736 2.441 0.988 4.166 3.382 4.166 6.182s-1.726 5.194-4.166 6.182c-0.683 0.276-1.46-0.053-1.736-0.736s0.053-1.46 0.736-1.736c1.468-0.594 2.5-2.033 2.5-3.71s-1.032-3.115-2.5-3.71c-0.683-0.276-1.012-1.054-0.736-1.736zM10.617 18.667h4.095c1.202 0 2.172 0 2.962 0.054 0.812 0.055 1.529 0.172 2.209 0.454 1.634 0.677 2.931 1.974 3.608 3.608 0.282 0.68 0.398 1.397 0.454 2.209 0.054 0.789 0.054 1.759 0.054 2.962v0.047c0 0.736-0.597 1.333-1.333 1.333s-1.333-0.597-1.333-1.333c0-1.261-0.001-2.14-0.048-2.828-0.046-0.676-0.132-1.069-0.257-1.37-0.406-0.98-1.185-1.759-2.165-2.165-0.3-0.124-0.694-0.211-1.37-0.257-0.688-0.047-1.567-0.048-2.827-0.048h-4c-1.261 0-2.14 0.001-2.827 0.048-0.676 0.046-1.069 0.132-1.37 0.257-0.98 0.406-1.759 1.185-2.165 2.165-0.124 0.3-0.211 0.694-0.257 1.37-0.047 0.688-0.048 1.567-0.048 2.828 0 0.736-0.597 1.333-1.333 1.333s-1.333-0.597-1.333-1.333v-0.047c0-1.202-0-2.172 0.054-2.962 0.055-0.812 0.172-1.529 0.454-2.209 0.677-1.634 1.974-2.931 3.608-3.608 0.68-0.281 1.397-0.398 2.209-0.454 0.789-0.054 1.759-0.054 2.962-0.054zM24.040 19.836c0.184-0.713 0.91-1.143 1.624-0.959 2.875 0.74 5.001 3.348 5.001 6.457v2.667c0 0.736-0.597 1.333-1.333 1.333s-1.333-0.597-1.333-1.333v-2.667c0-1.862-1.273-3.43-2.999-3.874-0.713-0.184-1.142-0.91-0.959-1.624z"></path>
</svg>
