<svg width="20" height="20" viewBox="0 0 20 20" fill="none" xmlns="http://www.w3.org/2000/svg">
<path fill-rule="evenodd" clip-rule="evenodd" d="M5.63241 3.3335H10.2012C10.8721 3.33349 11.4257 3.33348 11.8767 3.37032C12.3451 3.4086 12.7757 3.49073 13.1801 3.69681C13.8073 4.01639 14.3173 4.52632 14.6369 5.15353C14.8429 5.55797 14.9251 5.98856 14.9633 6.45698C14.9975 6.87527 15 7.38185 15.0002 7.98833L16.6281 6.36034C16.7874 6.201 16.944 6.04439 17.0812 5.92949C17.2037 5.82697 17.4616 5.62138 17.8188 5.59327C18.2176 5.56188 18.6075 5.72335 18.8673 6.02761C19.1 6.30006 19.137 6.62778 19.1511 6.78685C19.1669 6.96515 19.1669 7.18661 19.1668 7.41191V12.5884C19.1669 12.8137 19.1669 13.0352 19.1511 13.2135C19.137 13.3726 19.1 13.7003 18.8673 13.9727C18.6075 14.277 18.2177 14.4384 17.8188 14.4071C17.4616 14.3789 17.2037 14.1734 17.0812 14.0708C16.944 13.9559 16.7874 13.7993 16.6281 13.64L15.0002 12.012C15 12.6185 14.9975 13.1251 14.9633 13.5434C14.9251 14.0118 14.8429 14.4424 14.6369 14.8468C14.3173 15.474 13.8073 15.9839 13.1801 16.3035C12.7757 16.5096 12.3451 16.5917 11.8767 16.63C11.4257 16.6669 10.872 16.6668 10.2012 16.6668H5.63243C4.96162 16.6668 4.40798 16.6669 3.95697 16.63C3.48856 16.5917 3.05797 16.5096 2.65353 16.3035C2.02632 15.9839 1.51639 15.474 1.19681 14.8468C0.990733 14.4424 0.908596 14.0118 0.870325 13.5434C0.833477 13.0924 0.833486 12.5387 0.833496 11.8679V8.13241C0.833486 7.46161 0.833477 6.90797 0.870325 6.45698C0.908596 5.98856 0.990733 5.55797 1.19681 5.15353C1.51639 4.52632 2.02632 4.01639 2.65353 3.69681C3.05797 3.49073 3.48856 3.4086 3.95698 3.37032C4.40797 3.33348 4.96161 3.33349 5.63241 3.3335ZM13.3335 8.16683C13.3335 7.45301 13.3328 6.96777 13.3022 6.59269C13.2724 6.22735 13.2182 6.04051 13.1518 5.91018C12.9921 5.59658 12.7371 5.34161 12.4235 5.18182C12.2931 5.11541 12.1063 5.06131 11.741 5.03146C11.3659 5.00081 10.8806 5.00016 10.1668 5.00016H5.66683C4.95301 5.00016 4.46777 5.00081 4.09269 5.03146C3.72735 5.06131 3.54051 5.11541 3.41018 5.18182C3.09658 5.34161 2.84161 5.59658 2.68182 5.91018C2.61541 6.04051 2.56131 6.22735 2.53146 6.59269C2.50081 6.96777 2.50016 7.45301 2.50016 8.16683V11.8335C2.50016 12.5473 2.50081 13.0326 2.53146 13.4076C2.56131 13.773 2.61541 13.9598 2.68182 14.0901C2.84161 14.4038 3.09658 14.6587 3.41018 14.8185C3.54051 14.8849 3.72735 14.939 4.09269 14.9689C4.46777 14.9995 4.95301 15.0002 5.66683 15.0002H10.1668C10.8806 15.0002 11.3659 14.9995 11.741 14.9689C12.1063 14.939 12.2931 14.8849 12.4235 14.8185C12.7371 14.6587 12.9921 14.4038 13.1518 14.0901C13.2182 13.9598 13.2724 13.773 13.3022 13.4076C13.3328 13.0326 13.3335 12.5473 13.3335 11.8335V8.16683ZM15.3453 10.0002L17.5002 12.155V7.84534L15.3453 10.0002Z" fill="white"/>
</svg>
