<!-- Generated by IcoMoon.io -->
<svg version="1.1" xmlns="http://www.w3.org/2000/svg" width="32" height="32" viewBox="0 0 32 32">
<path d="M14.667 5.333c5.155 0 9.333 4.179 9.333 9.333 0 2.514-0.995 4.797-2.612 6.475-0.046 0.035-0.090 0.074-0.131 0.115s-0.080 0.086-0.115 0.131c-1.678 1.617-3.961 2.612-6.475 2.612-5.155 0-9.333-4.179-9.333-9.333s4.179-9.333 9.333-9.333zM24.042 22.157c1.642-2.053 2.624-4.657 2.624-7.49 0-6.627-5.372-12-12-12s-12 5.373-12 12c0 6.627 5.373 12 12 12 2.833 0 5.437-0.982 7.49-2.624l4.9 4.9c0.521 0.521 1.365 0.521 1.886 0s0.521-1.365 0-1.886l-4.9-4.9z"></path>
</svg>
